<svg id="visual" viewBox="0 0 1920 1080" width="1920" height="1080" xmlns="http://www.w3.org/2000/svg" xmlns:xlink="http://www.w3.org/1999/xlink" version="1.1"><rect x="0" y="0" width="1920" height="1080" fill="#FFFFFF"></rect><path d="M0 837L53.3 841.8C106.7 846.7 213.3 856.3 320 869.7C426.7 883 533.3 900 640 901.8C746.7 903.7 853.3 890.3 960 877.3C1066.7 864.3 1173.3 851.7 1280 848.8C1386.7 846 1493.3 853 1600 851.5C1706.7 850 1813.3 840 1866.7 835L1920 830L1920 1081L1866.7 1081C1813.3 1081 1706.7 1081 1600 1081C1493.3 1081 1386.7 1081 1280 1081C1173.3 1081 1066.7 1081 960 1081C853.3 1081 746.7 1081 640 1081C533.3 1081 426.7 1081 320 1081C213.3 1081 106.7 1081 53.3 1081L0 1081Z" fill="#31363f"></path><path d="M0 900L53.3 911.2C106.7 922.3 213.3 944.7 320 947.2C426.7 949.7 533.3 932.3 640 917.8C746.7 903.3 853.3 891.7 960 891.7C1066.7 891.7 1173.3 903.3 1280 914.8C1386.7 926.3 1493.3 937.7 1600 949.3C1706.7 961 1813.3 973 1866.7 979L1920 985L1920 1081L1866.7 1081C1813.3 1081 1706.7 1081 1600 1081C1493.3 1081 1386.7 1081 1280 1081C1173.3 1081 1066.7 1081 960 1081C853.3 1081 746.7 1081 640 1081C533.3 1081 426.7 1081 320 1081C213.3 1081 106.7 1081 53.3 1081L0 1081Z" fill="#292f38"></path><path d="M0 952L53.3 960.7C106.7 969.3 213.3 986.7 320 1001.7C426.7 1016.7 533.3 1029.3 640 1036.7C746.7 1044 853.3 1046 960 1032C1066.7 1018 1173.3 988 1280 973.8C1386.7 959.7 1493.3 961.3 1600 964C1706.7 966.7 1813.3 970.3 1866.7 972.2L1920 974L1920 1081L1866.7 1081C1813.3 1081 1706.7 1081 1600 1081C1493.3 1081 1386.7 1081 1280 1081C1173.3 1081 1066.7 1081 960 1081C853.3 1081 746.7 1081 640 1081C533.3 1081 426.7 1081 320 1081C213.3 1081 106.7 1081 53.3 1081L0 1081Z" fill="#222831"></path></svg>