<svg id="visual" viewBox="0 0 1920 1080" width="1920" height="1080" xmlns="http://www.w3.org/2000/svg" xmlns:xlink="http://www.w3.org/1999/xlink" version="1.1"><rect x="0" y="0" width="1920" height="1080" fill="#FFFFFF"></rect><defs><linearGradient id="grad1_0" x1="43.8%" y1="100%" x2="100%" y2="0%"><stop offset="14.444444444444446%" stop-color="#ffffff" stop-opacity="1"></stop><stop offset="85.55555555555554%" stop-color="#ffffff" stop-opacity="1"></stop></linearGradient></defs><defs><linearGradient id="grad2_0" x1="0%" y1="100%" x2="56.3%" y2="0%"><stop offset="14.444444444444446%" stop-color="#ffffff" stop-opacity="1"></stop><stop offset="85.55555555555554%" stop-color="#ffffff" stop-opacity="1"></stop></linearGradient></defs><g transform="translate(1920, 1080)"><path d="M-432 0C-420.4 -75 -408.8 -150.1 -374.1 -216C-339.4 -281.9 -281.7 -338.8 -215.5 -373.3C-149.3 -407.7 -74.7 -419.9 0 -432L0 0Z" fill="#F26B1D"></path></g><g transform="translate(0, 0)"><path d="M432 0C420.9 75.8 409.7 151.7 374.1 216C338.5 280.3 278.4 333.1 212 367.2C145.6 401.3 72.8 416.6 0 432L0 0Z" fill="#F26B1D"></path></g></svg>