<svg id="visual" viewBox="0 0 900 600" width="900" height="600" xmlns="http://www.w3.org/2000/svg" xmlns:xlink="http://www.w3.org/1999/xlink" version="1.1"><path d="M0 545L21.5 543.8C43 542.7 86 540.3 128.8 539.5C171.7 538.7 214.3 539.3 257.2 540C300 540.7 343 541.3 385.8 541.8C428.7 542.3 471.3 542.7 514.2 541.5C557 540.3 600 537.7 642.8 537C685.7 536.3 728.3 537.7 771.2 537.7C814 537.7 857 536.3 878.5 535.7L900 535L900 601L878.5 601C857 601 814 601 771.2 601C728.3 601 685.7 601 642.8 601C600 601 557 601 514.2 601C471.3 601 428.7 601 385.8 601C343 601 300 601 257.2 601C214.3 601 171.7 601 128.8 601C86 601 43 601 21.5 601L0 601Z" fill="#31363F" stroke-linecap="round" stroke-linejoin="miter"></path></svg>