<svg id="visual" viewBox="0 0 900 600" width="900" height="600" xmlns="http://www.w3.org/2000/svg" xmlns:xlink="http://www.w3.org/1999/xlink" version="1.1"><path d="M0 53L21.5 54.2C43 55.3 86 57.7 128.8 58.5C171.7 59.3 214.3 58.7 257.2 58C300 57.3 343 56.7 385.8 56.2C428.7 55.7 471.3 55.3 514.2 56.5C557 57.7 600 60.3 642.8 61C685.7 61.7 728.3 60.3 771.2 60.3C814 60.3 857 61.7 878.5 62.3L900 63L900 0L878.5 0C857 0 814 0 771.2 0C728.3 0 685.7 0 642.8 0C600 0 557 0 514.2 0C471.3 0 428.7 0 385.8 0C343 0 300 0 257.2 0C214.3 0 171.7 0 128.8 0C86 0 43 0 21.5 0L0 0Z" fill="#31363F" stroke-linecap="round" stroke-linejoin="miter"></path></svg>