<svg id="visual" viewBox="0 0 1920 1080" width="1920" height="1080" xmlns="http://www.w3.org/2000/svg" xmlns:xlink="http://www.w3.org/1999/xlink" version="1.1"><path d="M0 141L64 167.2C128 193.3 256 245.7 384 240C512 234.3 640 170.7 768 143.2C896 115.7 1024 124.3 1152 138.3C1280 152.3 1408 171.7 1536 197.7C1664 223.7 1792 256.3 1856 272.7L1920 289L1920 0L1856 0C1792 0 1664 0 1536 0C1408 0 1280 0 1152 0C1024 0 896 0 768 0C640 0 512 0 384 0C256 0 128 0 64 0L0 0Z" fill="#265DA6" stroke-linecap="round" stroke-linejoin="miter"></path></svg>