<svg id="visual" viewBox="0 0 1920 1080" width="1920" height="1080" xmlns="http://www.w3.org/2000/svg" xmlns:xlink="http://www.w3.org/1999/xlink" version="1.1"><path d="M0 937L64 910.8C128 884.7 256 832.3 384 838C512 843.7 640 907.3 768 934.8C896 962.3 1024 953.7 1152 939.7C1280 925.7 1408 906.3 1536 880.3C1664 854.3 1792 821.7 1856 805.3L1920 789L1920 1081L1856 1081C1792 1081 1664 1081 1536 1081C1408 1081 1280 1081 1152 1081C1024 1081 896 1081 768 1081C640 1081 512 1081 384 1081C256 1081 128 1081 64 1081L0 1081Z" fill="#265DA6" stroke-linecap="round" stroke-linejoin="miter"></path></svg>